<?xml version="1.0"?>
<svg id="Capa_1" style="enable-background:new 76 -76 512 512;" version="1.1"
    viewBox="76 -76 512 512" xml:space="preserve" xmlns="http://www.w3.org/2000/svg"
    xmlns:xlink="http://www.w3.org/1999/xlink"><style type="text/css">
	.st0{fill:#2D2D2D;}
</style><path class="st0" d="M582.8-4.5c-3-6.3-8-9.7-15-9.9c-4-0.1-8,0-12,0c-3.1-0.1-5.9,0.8-8.6,2.3c-0.2,0.1-0.5,0.3-0.9,0.5  c0-1.6,0.1-3.1,0-4.5c-0.2-2-0.4-4.1-1.1-6c-2.2-6.1-6.7-9.6-13-10.8c-0.3,0-0.5-0.2-0.8-0.2c-8,0-16,0-24,0  c-0.8,0.2-1.7,0.4-2.5,0.6c-7.4,2-12.3,8.5-12.3,16.2c0,24.8,0,49.6,0,74.4c0,0.5,0,1,0,1.8c-0.6,0-1.2,0-1.7,0  c-20.8,0-41.5,0-62.3,0h-7.8c0-4.5,0.1-9.1,0.1-13.6c0-5.9,0.3-11.9-0.1-17.8c-0.8-12.3-7.2-20.8-18.8-25.1c-11-4-23.1-0.5-30.7,8.6  c-0.3,0.3-0.5,0.6-0.8,0.9c-5.9-12.6-15.6-18.8-29.4-17.7c-10,0.8-19.3,7.7-23.3,18.8c-6.6-8-15-11.8-25.3-10.8  c-10.3,1.1-17.6,6.7-22.3,15.9c-2.4-3.5-5.3-6.2-8.7-8.4c-10-6.5-21.7-5.3-31,1.1c-7.8,5.4-11.3,13.1-11.5,22.3  c-0.2,7,0,14.1,0,21.1c0,1.3,0.2,2.5,0.3,3.9c-15.7,0-31.4,0-47.3,0c0-0.7,0-1.2,0-1.8c0-24.5,0-49,0-73.6c0-8.8-5.4-15.3-14.1-16.9  c-0.1,0-0.3-0.1-0.4-0.2c-8.3,0-16.6,0-25,0c-0.2,0.1-0.3,0.2-0.5,0.2c-7.9,1.5-13.5,8.1-13.7,16.2c0,1.7,0,3.4,0,5.1  c-1.8-0.7-3.5-1.5-5.3-2.1c-1.3-0.4-2.7-0.5-4-0.5c-4.1-0.1-8.2,0-12.3,0c-8.1,0-14.7,5.5-16.2,13.5c0,0.3-0.2,0.5-0.3,0.7  c0,57,0,113.9,0,170.9c0.1,0.4,0.3,0.8,0.4,1.2c1.7,7.3,7.5,12.3,14.9,12.8c4.7,0.3,9.4,0.2,14,0.1c3,0,5.7-1,8.2-2.6  c0.1-0.1,0.3-0.1,0.6-0.2c0,1.5,0,2.8,0,4.2c0.1,9.9,6.8,16.9,16.7,17.2c6.9,0.2,13.8,0.1,20.6,0.1c0.8,0,1.5,0,2.3-0.1  c8.2-1.3,14-8.1,14-16.5c0-24.6,0-49.3,0-73.9c0-0.5,0-1.1,0-1.7c16.5,0,32.8,0,49.3,0c0,0.6,0,1,0,1.5c0,15.6,0,31.2,0,46.8  c0,2.1,0.1,4.2,0.2,6.2c0.7,13,4.2,25.1,11.3,36.1c3,4.7,6.4,9.2,9.7,13.7c0.5,0.8,0.8,1.5,0.8,2.4c0,52.8,0,105.5,0,158.3  c0,0.4,0,0.8,0,1.2c0.2,9.1,7.2,16.1,16.3,16.1c38.4,0,76.8,0,115.2,0c2,0,4.1-0.4,5.9-1.2c6.5-2.5,10.2-8.5,10.2-16  c0-46.2,0-92.3,0-138.5c0-0.7,0.3-1.4,0.5-2c0.4-1.9,1.7-3.1,3.2-4.2c0.4-0.3,0.7-0.7,1-1.2c5.2-6.5,10.4-13.1,15.7-19.6  c9.6-11.8,17.7-24.5,23.4-38.6c7.1-17.5,10.7-35.7,10.8-54.5c0-2.1,0-4.1,0-6.2c15.8,0,31.4,0,47.1,0c0,0.6,0,1.1,0,1.6  c0,24.5,0,49,0,73.6c0,9.5,7.1,16.7,16.5,16.8c6.9,0.1,13.8,0.1,20.6,0c7.4-0.1,13.6-4.7,15.8-11.7c0.9-2.7,0.8-5.5,0.8-8.3  c0-0.5,0-1.1,0-1.8c2.9,1.8,5.8,2.8,8.9,2.8c4.5,0.1,9,0.1,13.4,0c7-0.2,13-5,14.9-11.8c0.2-0.9,0.5-1.7,0.7-2.6  c0-56.9,0-113.8,0-170.6C583.8-1.7,583.5-3.2,582.8-4.5z M119.3,167.9c0,6.5-4.5,11-11,11c-4.1,0-8.2,0.1-12.3-0.1  c-5.4-0.3-9.5-4.7-9.7-10.2c0-0.3,0-0.6,0-1c0-54.6,0-109.3,0-163.9c0-3.6,0.7-6.8,3.5-9.3c1.9-1.7,4.1-2.6,6.6-2.6  c4.1,0,8.2,0,12.2,0c6.1,0,10.7,4.5,10.7,10.7c0,26.9,0,53.8,0,80.6c0,0.8,0,1.5,0,2.3C119.3,112.9,119.3,140.4,119.3,167.9z   M166,184.7c0,1.8-0.1,3.7-0.6,5.4c-1.1,4.3-4.9,7.2-9.3,7.3c-6.9,0.1-13.8,0.1-20.6,0c-6.7-0.1-10.9-4.5-11-11.2  c-0.1-3.9,0-7.8,0-11.6c0-0.2-0.1-186.8,0-190.8c0-6.3,4.6-10.9,10.9-10.9c6.4,0,12.8,0,19.2,0c7.1,0,11.5,4.4,11.5,11.5  C166-14.1,166,162.9,166,184.7z M395,8.1c11.7,1.3,19.8,10.3,19.9,22.1c0.1,9.4,0,18.8,0,28.2c0,0.6-0.1,1.2-0.1,1.6  c-14.5,0-28.9,0-43.5,0c-0.1-0.8-0.2-1.3-0.2-1.9c0-9.6,0-19.2,0-28.8C371.2,16.9,382.7,6.7,395,8.1z M342,1.2  C352.5,0,362.8,7,365.5,17.4c0.1,0.3,0.1,1.1,0.1,2.3h0v39.6l0,0.5c0,0-8.8-0.1-12.8,0C339.1,60.2,327.7,70,325,83.4  c-0.1,0.3-0.2,0.6-0.3,1.2c-1.2-2.5-1.8-4.9-2.1-7.4c-0.1-0.6-0.1-1.2-0.1-1.8c0-17.5,0-35,0-52.5C322.6,11.8,330.9,2.6,342,1.2z   M274.6,34.2c0-1.5-0.3-3-0.4-4.5c-0.1-1.1-0.2-2.2,0.1-3.3c2.3-9.2,8.1-15,17.4-16.9c10.4-2.1,21.4,4.6,24.5,14.7  c0.2,0.5,0.2,1.1,0.2,1.7c0,6.3,0,12.6,0,19c0,6.3,0,12.6,0,18.8c0,0.9-0.2,1.8-0.5,2.6c-3.8,10.3-13.8,14.7-21.7,14.1  c-10-0.7-18.3-8-20.1-17.7c-0.2-1.2-0.1-2.4,0-3.7c0.1-1.4,0.3-2.7,0.3-4.1C274.7,48,274.7,41.1,274.6,34.2z M249.7,12.7  c7.6,0.8,17.7,7.9,18.6,19c0.3,4.2,0.1,8.5,0.1,12.8c0,4.2,0.3,8.3-0.1,12.5c-0.9,10-9.8,18.5-19.9,19.1  c-11.5,0.7-21.1-6.8-23.2-18.2c-0.2-0.9-0.3-1.9-0.3-2.9c0-6.8-0.1-13.5-0.1-20.3C225.1,21.2,236.3,11.2,249.7,12.7z M171,105.1  c0-13.2,0-26.4,0-39.8c0.4,0,0.8,0,1.2,0c10.8,0,21.5,0,32.3,0c5.2,0,10.3,0.1,15.5,0.1c1,0,1.4,0.3,1.8,1.1  c4.2,8.2,10.7,13.6,19.8,15.2c11.3,2,20.5-1.9,27.6-10.9c0.2-0.3,0.4-0.6,0.6-0.9c0-0.1,0.1-0.1,0.2-0.2  c4.4,8.9,11.4,14.6,21.2,16.2c9.8,1.6,18.1-1.8,25.2-8.9c0.2,1.3,0.3,2.5,0.6,3.7c0.5,1.8,0.9,3.7,1.7,5.3c0.6,1.3,1.7,2.4,2.6,3.6  c1.3,1.7,3.1,3.1,3.5,5.4c0.6,3.2,1.9,6.2,3.5,9c0.1,0.2,0.2,0.5,0.4,0.8C276.2,105.1,223.6,105.1,171,105.1z M379.1,386.4  c-1.3,0.7-3,1.1-4.5,1.1c-38.4,0.1-76.7,0.1-115.1,0c-5.8,0-10.1-4.5-10.3-10.5c0-0.4,0-0.7,0-1.1c0-53,0-106.1,0-159.1  c0-1.6-0.4-2.8-1.3-4.1c-3.8-5.4-7.8-10.6-11.2-16.3c-5.8-9.4-8.5-19.8-9.1-30.8c-0.2-3.4-0.2-6.7-0.2-10.1c0-14.3,0-28.6,0-42.8  c0-0.5,0-0.9,0-1.6c0.7,0,1.3,0,1.8,0c33,0,66.1,0,99.1,0c0.8,0,1.7,0,2.5-0.3c1-0.4,1.6-0.1,2.3,0.6c5.5,5.1,12.1,7.7,19.6,8.2  c0.5,0,1,0,1.4,0.1c0,0,0,0.1,0.1,0.1c-2.2,1.6-4.5,3.2-6.6,4.9c-13.2,11.1-21.5,25.1-23.7,42.4c-0.7,5.4-0.7,10.9-0.7,16.4  c-0.1,14.4,0,28.9,0.1,43.3c0,1.5,0.6,2.9,0.9,4.4c0.1,0.5,0.2,0.9,0.3,1.2c3.5,2.2,7.4,1.5,11.1,1.6c16,0,32,0,48,0  c0.5,0,0.9,0,1.3,0c0,1.1,0,2.1,0,3.1c0,46.4,0,92.8,0,139.2C384.8,380.8,383.2,384.4,379.1,386.4z M438.8,130  c-1.2,14.4-4.8,28.3-10.4,41.7c-5.8,13.8-14,26-23.4,37.5c-4.7,5.7-9.3,11.6-13.9,17.4c-0.8,1-1.6,1.4-2.9,1.4  c-19.1,0-38.2,0-57.3,0c-0.5,0-0.9,0-1.5,0c0-0.5,0-0.9,0-1.3c0-14.3-0.1-28.6-0.1-42.8c0-5.7-0.1-11.5,0.8-17.2  c1.9-11.6,6.9-21.7,14.6-30.5c5-5.8,11.2-10.1,17.7-14c1.4-0.9,2.9-1.7,4.3-2.7c0.5-0.3,0.9-1,1-1.6c0.2-1.3,0.3-2.7,0.4-4.2  c-0.7,0-1.1,0-1.6,0c-4.9-0.1-9.8,0.1-14.7-0.2c-7.2-0.5-13.5-4-17.3-10.2c-2-3.4-3.2-7.3-3.9-11.2c-0.7-3.9,0-7.6,1.7-11.2  c1.6-3.5,3.7-6.9,6.6-9.4c2.8-2.4,6.1-4.1,9.7-4.9c1.3-0.3,2.7-0.5,4.1-0.6c5.7-0.3,11.4-0.4,17.1-0.3c5.5,0.1,11.1,0.1,16.6,0.2  c6.3,0.1,12.6,0,18.9,0.1c3.4,0,6.8,0,10.3,0.3c3.3,0.3,5.9,2.1,8.4,4.1c3.3,2.6,6.5,5.3,9,8.7c6,8.1,5.1,18.1,6.2,27.6  c0.1,1.1,0.3,2.3,0.3,3.4c0.2,2.1,0.2,4.2,0.2,6.3C439.5,120.9,439.2,125.5,438.8,130z M493.5,105.5c-16.3,0-32.6,0-49,0  c0-1.6,0-3.3,0-4.9c0-4.5-0.1-9-1.3-13.4c-2.2-8.4-7.1-15-14-20.2c-0.4-0.3-0.7-0.5-1.2-0.9c21.9,0,43.6,0,65.5,0  C493.5,79.2,493.5,92.3,493.5,105.5z M540.2,186.7c0,6.4-4.5,10.9-10.8,11c-6.6,0.1-13.3,0.1-19.9,0c-6.4-0.1-10.7-4.5-10.8-11  c0-12.8,0-25.5,0-38.3c0-12.8,0-138.6,0-164.5c0-6.4,4.4-10.9,10.9-10.9c6.6-0.1,13.1-0.1,19.7,0c6.5,0.1,10.9,4.6,11,11.1  c0,2.3,0,4.6,0,6.8C540.2-6.4,540.2,183.5,540.2,186.7z M578.2,166.4c0,1.4-0.1,2.8-0.4,4.2c-1.1,4.9-5,8.1-10.2,8.2  c-4,0.1-7.9,0.1-11.9,0c-6.3-0.1-10.6-4.7-10.6-11c0-19.7,0-39.4,0-59.2c0-35.4,0-70.7,0-106.1c0-5.6,3.5-9.8,9-10.8  c0.1,0,0.2,0,0.2,0c5,0,9.9-0.2,14.9,0.2c5,0.4,8.7,4.8,9,9.8c0,0.6,0,1.1,0,1.7c0,27.2,0,54.5,0,81.7  C578.2,112.2,578.2,139.3,578.2,166.4z"/></svg>